<svg width="600" height="200" viewBox="40 60 670 281" xmlns="http://www.w3.org/2000/svg">
  <defs>
    <linearGradient id="pjhGrad" x1="0%" y1="0%" x2="100%" y2="0%">
      <stop offset="0%" stop-color="#7ED321"/>
      <stop offset="35%" stop-color="#FFEB3B"/>
      <stop offset="65%" stop-color="#FF9800"/>
      <stop offset="100%" stop-color="#F44336"/>
    </linearGradient>
  </defs>
  <rect x="40" y="60" width="670" height="281" fill="#0d1117"/>
  <path fill-rule="evenodd" d="M127.951,306.006 L81.451,306.006 C74.251,306.006 70.651,302.406 70.651,295.206 L70.651,100.806 C70.651,93.606 74.251,90.006 81.451,90.006 L173.251,90.006 C191.451,90.006 205.701,92.456 216.001,97.356 C226.301,102.256 233.551,109.106 237.751,117.906 C241.951,126.706 244.051,136.906 244.051,148.506 L244.051,186.906 C244.051,198.506 241.951,208.706 237.751,217.506 C233.551,226.306 226.301,233.156 216.001,238.056 C205.701,242.956 191.451,245.406 173.251,245.406 L138.751,245.406 L138.751,295.206 C138.751,302.406 135.151,306.006 127.951,306.006 Z M138.151,146.106 L138.151,191.406 L165.151,191.406 C170.951,191.406 174.751,189.906 176.551,186.906 C178.351,183.906 179.251,180.506 179.251,176.706 L179.251,160.806 C179.251,156.806 178.351,153.356 176.551,150.456 C174.751,147.556 170.951,146.106 165.151,146.106 Z M447.942,249.306 C447.942,261.506 445.492,272.206 440.592,281.406 C435.692,290.606 426.942,297.756 414.342,302.856 C401.742,307.956 383.642,310.506 360.042,310.506 C336.842,310.506 318.942,307.956 306.342,302.856 C293.742,297.756 285.042,290.606 280.242,281.406 C275.442,272.206 273.042,261.506 273.042,249.306 L273.042,200.706 C273.042,193.506 276.642,189.906 283.842,189.906 L327.342,189.906 C334.542,189.906 338.142,193.506 338.142,200.706 L338.142,237.306 C338.142,241.306 339.392,244.656 341.892,247.356 C344.392,250.056 350.242,251.406 359.442,251.406 C368.242,251.406 373.742,250.056 375.942,247.356 C378.142,244.656 379.242,241.306 379.242,237.306 L379.242,100.806 C379.242,93.606 382.842,90.006 390.042,90.006 L437.142,90.006 C444.342,90.006 447.942,93.606 447.942,100.806 Z M551.291,306.006 L504.791,306.006 C497.591,306.006 493.991,302.406 493.991,295.206 L493.991,100.806 C493.991,93.606 497.591,90.006 504.791,90.006 L551.291,90.006 C558.491,90.006 562.091,93.606 562.091,100.806 L562.091,165.906 L612.191,165.906 L612.191,100.806 C612.191,93.606 615.791,90.006 622.991,90.006 L669.491,90.006 C676.691,90.006 680.291,93.606 680.291,100.806 L680.291,295.206 C680.291,302.406 676.691,306.006 669.491,306.006 L622.991,306.006 C615.791,306.006 612.191,302.406 612.191,295.206 L612.191,228.606 L562.091,228.606 L562.091,295.206 C562.091,302.406 558.491,306.006 551.291,306.006 Z" fill="url(#pjhGrad)" stroke="#000000" stroke-width="10" stroke-linejoin="round"/>
</svg>
